<?xml version="1.0" encoding="utf-8"?>
<!-- Generator: Adobe Illustrator 28.2.0, SVG Export Plug-In . SVG Version: 6.00 Build 0)  -->
<svg version="1.1" id="Calque_1" xmlns="http://www.w3.org/2000/svg" xmlns:xlink="http://www.w3.org/1999/xlink" x="0px" y="0px"
	 viewBox="0 0 1093.1 144.4" style="enable-background:new 0 0 1093.1 144.4;" xml:space="preserve">
<style type="text/css">
	.st0{fill:#0156FB;}
	.st1{fill:#0155FB;}
	.st2{fill:#E7E7E7;}
</style>
<g>
	<path class="st0" d="M124.3,69.1v-0.2c0-0.1,0-0.2,0-0.3V20.2c0-0.1,0-0.4,0-0.4c0-0.9,0-1.8-0.4-2.7c-1.2-3.1-3.8-4.8-7.1-4.8
		H32.2c-5.3,0-10.5,0-15.8,0c-2.6,0-4.5,1.2-6,3.2c-0.8,1-1,2.2-1.1,3.5v52.8c0,0,0.1,3.8,0.2,5.6l0,0c0.1,1.6,0.2,3.1,0.5,4.7
		c0.7,4.8,1.8,9.5,3.5,14c1.5,4,3.7,7.6,6.1,11c3.3,4.8,7.2,9.1,11.6,12.9c5.1,4.5,10.8,8.3,17,11.2c0.2,0.1,0.4,0.2,0.7,0.3l0,0
		c0.2,0.1,5.4,2.8,11.7,4c0.6,0.1,1.3,0.2,2,0.3l0,0c1,0.1,2,0.2,3,0.2l0,0c0,0,3.4,0.2,6.6-0.5l0,0c0.4-0.1,0.7-0.1,1.1-0.2l0,0
		c2.6-0.5,4.7-1.2,5.7-1.5l0,0c1.2-0.4,2.4-0.8,3.6-1.3l0,0c1.3-0.5,2.7-1.1,4-1.8c2.3-1.1,4.5-2.4,6.7-3.7l0,0
		c0.4-0.2,0.6-0.4,0.9-0.6c4.6-3,8.8-6.5,12.7-10.6c2.5-2.6,4.7-5.3,6.8-8.1c4.6-6.2,7.7-13.1,9.1-20.7c0.4-2.1,0.8-4.3,1.1-6.4l0,0
		c0-0.1,0-0.2,0-0.3l0,0c0.2-1.5,0.3-3,0.4-4.6c0.2-2.6,0.1-4.1,0.1-4.1C124.3,70.9,124.3,70,124.3,69.1z"/>
	<path d="M66.8,17.5c16.4,0,32.9,0,49.3,0c0.7,0,1.4,0,2,0.5s1,1,1,1.8c0,0.2,0,0.3,0,0.5c0,16.9,0,33.9-0.1,50.8
		c0,6.8-0.9,13.5-2.9,20c-1.8,6.1-5.1,11.4-9,16.3c-7.2,8.9-15.9,15.7-26.5,20.2c-4.1,1.7-8.5,2.9-12.9,3.4c-2.1,0.2-4-0.3-6-0.7
		c-9.4-2-17.6-6.4-25-12.5c-6.6-5.4-12.2-11.8-16.3-19.3c-2.5-4.5-3.9-9.4-4.8-14.5c-1-5.6-1.3-11.2-1.3-16.9c0-15.6,0-31.2,0-46.8
		c0-2,1-3,3-3C33.9,17.5,50.4,17.5,66.8,17.5z"/>
	<path class="st1" d="M66.8,25.1c14.3,0,28.6,0,42.9,0c0.3,0,0.5,0,0.8,0c0.6,0.1,0.9,0.4,1,1c0,0.2,0,0.3,0,0.5
		c0,13.6,0,27.3,0,40.9c0,1.1-0.5,1.6-1.4,1.5c-0.3-0.1-0.5-0.3-0.8-0.5c-10-7.5-19.9-14.9-29.9-22.4c-5.9-4.4-11.8-8.9-17.7-13.3
		c-0.5-0.4-1-0.5-1.6-0.5c-2.1,0-4.2,0-6.2,0c-0.2,0-0.3,0-0.5,0c-0.5,0-1,0.3-1.1,0.8c-0.2,0.5,0,1,0.5,1.3
		c1.4,1.1,2.8,2.1,4.2,3.1c16.8,12.6,33.7,25.2,50.5,37.8c2.7,2,3.5,4.5,2.9,7.7c-1.5,8.4-5.3,15.6-10.9,21.9
		c-6.2,7-13.5,12.4-22.3,15.7c-3.3,1.2-6.6,2.1-10.1,2.4c-1.4,0.1-2.8-0.2-4.2-0.5c-8.8-1.8-16.4-6.1-23.1-11.9
		c-5.2-4.5-9.5-9.7-12.7-15.8c-2.2-4.2-3.4-8.7-4.1-13.4c-1-6.1-0.9-12.3-0.9-18.4c0-0.5,0.2-1,0.7-1.2c0.6-0.3,1,0,1.4,0.3
		c10,7.5,19.9,14.9,29.9,22.4c10.2,7.6,20.4,15.3,30.6,22.9c0.8,0.6,1.2,0.6,2,0c1.1-0.8,2.2-1.7,3.2-2.7c1-0.9,1-1.5-0.1-2.3
		c-13-9.7-26.1-19.5-39.1-29.2c-8.6-6.4-17.2-12.9-25.8-19.3c-1.8-1.4-2.7-3.2-2.7-5.4c0-7.2,0-14.4,0-21.7c0-1.3,0.3-1.6,1.6-1.6
		C38.1,25.1,52.4,25.1,66.8,25.1z"/>
</g>
<g>
	<path class="st2" d="M182.2,103.9c-3.9-1.9-6.9-4.5-9-7.7c-2.1-3.3-3.1-6.9-3.1-11h14.4c0,2.6,1,4.7,3.1,6.4
		c2.1,1.7,4.9,2.6,8.6,2.6c3.6,0,6.3-0.6,8.1-1.9s2.7-2.9,2.7-4.8c0-1.7-0.7-3.1-2.1-4.2c-1.4-1.1-3.7-2-6.9-2.6l-9.9-1.8
		c-5.6-1-9.8-3-12.5-5.8c-2.7-2.9-4.1-6.8-4.1-11.7c0-3.7,0.9-6.9,2.8-9.8c1.9-2.9,4.6-5.2,8.2-6.9c3.6-1.7,7.8-2.6,12.8-2.6
		c5.4,0,10,0.9,13.9,2.7c3.9,1.8,6.8,4.4,8.8,7.6s3,7,3,11.2h-14.4c0-2.5-1-4.6-3.1-6.4c-2-1.7-4.8-2.6-8.2-2.6c-3,0-5.3,0.6-7,1.9
		c-1.6,1.3-2.5,2.9-2.5,4.8c0,1.6,0.6,2.9,1.7,3.7c1.1,0.9,3.1,1.6,6,2.1l9.9,1.8c6.3,1.1,10.8,3.1,13.7,6c2.8,2.9,4.3,7,4.3,12.4
		c0,3.7-1,6.9-2.9,9.9c-1.9,2.9-4.8,5.2-8.5,6.9c-3.8,1.7-8.4,2.5-13.7,2.5S186.2,105.8,182.2,103.9z"/>
	<path class="st2" d="M239.8,103.6c-3.7-2.1-6.5-4.9-8.6-8.5c-2.1-3.6-3.1-7.7-3.1-12.2s1-8.5,3.1-12.2c2.1-3.6,5-6.5,8.6-8.5
		c3.7-2.1,7.8-3.1,12.3-3.1c4.3,0,8.2,1,11.8,3.1c3.6,2,6.4,4.8,8.4,8.4s3.1,7.5,3.1,11.8c0,1.6-0.2,3.1-0.4,4.5h-33.4
		c0.4,2.5,1.5,4.6,3.5,6.3c2,1.7,4.3,2.6,7.1,2.6c2,0,3.8-0.4,5.2-1.2c1.4-0.8,2.5-1.6,3.2-2.4h13.6c-0.6,2-1.8,4.2-3.6,6.4
		c-1.8,2.2-4.3,4.1-7.4,5.7s-6.8,2.4-11.1,2.4C247.6,106.7,243.5,105.7,239.8,103.6z M262,78.7c-0.4-2.5-1.4-4.6-3.2-6.3
		c-1.8-1.7-4-2.5-6.6-2.5c-2.8,0-5.1,0.8-7,2.5s-3.1,3.8-3.6,6.3H262z"/>
	<path class="st2" d="M283.9,105.8V60h11.7l0.9,4h0.4c1.1-1.3,2.7-2.4,4.9-3.4c2.2-1,4.8-1.5,7.9-1.5c3.5,0,6.6,0.8,9.3,2.4
		c2.7,1.6,4.8,3.8,6.4,6.7c1.5,2.9,2.3,6.3,2.3,10.1v27.5h-13.6V80.6c0-2.5-0.8-4.6-2.3-6.2s-3.5-2.4-6.1-2.4s-4.5,0.8-6.1,2.4
		c-1.5,1.6-2.3,3.6-2.3,6.2v25.2H283.9z"/>
	<path class="st2" d="M354.6,105.8c-4.4,0-7.7-1.1-10-3.2c-2.3-2.2-3.4-5.2-3.4-9.2V72.9H334V60h7.2V45.8h13.6V60h10.3v12.9h-10.3
		v17.6c0,1.1,0.2,1.9,0.7,2.4s1.3,0.7,2.4,0.7h7.2v12.2H354.6z"/>
	<path class="st2" d="M388.4,53.4h-14.2V41.6h14.2V53.4z M388.1,105.8h-13.6V60h13.6V105.8z"/>
	<path class="st2" d="M398.8,105.8V60h11.7l0.9,4h0.4c1.1-1.3,2.7-2.4,4.9-3.4c2.2-1,4.8-1.5,7.9-1.5c3.5,0,6.6,0.8,9.3,2.4
		c2.7,1.6,4.8,3.8,6.4,6.7c1.5,2.9,2.3,6.3,2.3,10.1v27.5H429V80.6c0-2.5-0.8-4.6-2.3-6.2s-3.5-2.4-6.1-2.4c-2.5,0-4.5,0.8-6.1,2.4
		c-1.5,1.6-2.3,3.6-2.3,6.2v25.2H398.8z"/>
	<path class="st2" d="M462.5,103.6c-3.7-2.1-6.5-4.9-8.6-8.5c-2.1-3.6-3.1-7.7-3.1-12.2s1-8.5,3.1-12.2c2.1-3.6,5-6.5,8.6-8.5
		c3.7-2.1,7.8-3.1,12.3-3.1c4.3,0,8.2,1,11.8,3.1c3.6,2,6.4,4.8,8.4,8.4s3.1,7.5,3.1,11.8c0,1.6-0.1,3.1-0.4,4.5h-33.4
		c0.4,2.5,1.5,4.6,3.5,6.3c2,1.7,4.3,2.6,7.1,2.6c2,0,3.8-0.4,5.2-1.2c1.4-0.8,2.5-1.6,3.2-2.4h13.6c-0.6,2-1.8,4.2-3.6,6.4
		c-1.8,2.2-4.3,4.1-7.4,5.7s-6.8,2.4-11.1,2.4C470.3,106.7,466.2,105.7,462.5,103.6z M484.7,78.7c-0.4-2.5-1.4-4.6-3.2-6.3
		c-1.8-1.7-4-2.5-6.6-2.5c-2.8,0-5.1,0.8-7,2.5c-1.9,1.7-3.1,3.8-3.6,6.3H484.7z"/>
	<path class="st2" d="M520.6,105.8H507V43h13.6V105.8z"/>
	<path class="st2" d="M586.3,72.6H614v33.2h-10.8l-0.9-6.3h-0.4c-1.7,2-4,3.7-6.9,5.1c-2.9,1.4-6.3,2.1-10,2.1
		c-5.7,0-10.9-1.4-15.6-4.2c-4.7-2.8-8.4-6.6-11.1-11.5c-2.7-4.9-4-10.4-4-16.6s1.4-11.7,4.1-16.7c2.7-4.9,6.4-8.8,11.1-11.5
		c4.7-2.8,9.9-4.1,15.5-4.1c5.3,0,9.9,1.1,13.9,3.4c4,2.2,7.2,5.1,9.6,8.5c2.4,3.4,4,7,4.9,10.6h-14.7c-1.1-2.4-2.8-4.4-5.3-6.1
		c-2.5-1.6-5.3-2.5-8.4-2.5c-3.1,0-5.9,0.7-8.3,2.2c-2.5,1.5-4.4,3.6-5.8,6.4c-1.4,2.8-2.2,6-2.2,9.7s0.7,7,2.2,9.7
		c1.4,2.8,3.4,4.9,5.8,6.4c2.5,1.5,5.2,2.2,8.3,2.2c2.9,0,5.4-0.5,7.5-1.6s3.7-2.4,4.9-4s1.9-3.1,2.2-4.6v-0.2h-13.3V72.6z"/>
	<path class="st2" d="M624.3,105.8V60H636l0.9,3.6h0.4c0.7-1,1.7-1.8,3.1-2.5c1.4-0.7,3.1-1.1,4.9-1.1h8.7v12.9h-8.1
		c-5.4,0-8.2,2.8-8.2,8.4v24.6h-13.4V105.8z"/>
	<path class="st2" d="M669.3,103.6c-3.7-2.1-6.5-4.9-8.6-8.5c-2.1-3.6-3.1-7.7-3.1-12.2s1-8.5,3.1-12.2c2.1-3.6,4.9-6.5,8.6-8.5
		c3.7-2.1,7.8-3.1,12.3-3.1s8.6,1,12.3,3.1c3.7,2.1,6.5,4.9,8.6,8.5s3.1,7.7,3.1,12.2s-1,8.5-3.1,12.2c-2.1,3.6-4.9,6.5-8.6,8.5
		c-3.7,2.1-7.8,3.1-12.3,3.1C677,106.7,672.9,105.7,669.3,103.6z M689,91c2-2.1,3-4.8,3-8.1c0-3.3-1-6-3-8.1s-4.5-3.1-7.4-3.1
		s-5.4,1-7.4,3.1s-3,4.8-3,8.1c0,3.3,1,6,3,8.1s4.5,3.1,7.4,3.1C684.5,94.2,687,93.1,689,91z"/>
	<path class="st2" d="M736.6,105.8h-16.7L708.3,60h14l6.5,25.9h1.8l6.6-25.9h13.6l6.6,25.9h1.8l6.5-25.9h14L768,105.8h-16.7
		l-6.4-25.6h-1.8L736.6,105.8z"/>
	<path class="st2" d="M802.9,105.8c-4.4,0-7.7-1.1-10-3.2c-2.3-2.2-3.4-5.2-3.4-9.2V72.9h-7.2V60h7.2V45.8h13.6V60h10.3v12.9h-10.3
		v17.6c0,1.1,0.2,1.9,0.7,2.4s1.3,0.7,2.4,0.7h7.2v12.2H802.9z"/>
	<path class="st2" d="M823.3,105.8V43h13.6v21.1h0.4c0.9-1.3,2.4-2.4,4.6-3.4c2.2-1,4.6-1.5,7.3-1.5c3.5,0,6.6,0.8,9.3,2.4
		s4.8,3.8,6.4,6.7c1.5,2.9,2.3,6.3,2.3,10.1v27.5h-13.6V80.7c0-2.5-0.8-4.6-2.3-6.2s-3.5-2.4-6.1-2.4c-2.5,0-4.5,0.8-6.1,2.4
		c-1.5,1.6-2.3,3.6-2.3,6.2v25.2h-13.5V105.8z"/>
	<path class="st2" d="M902.6,105.8V43h23.3c5.6,0,10.8,1.4,15.4,4.1c4.7,2.8,8.3,6.5,11,11.3s4,10.1,4,16s-1.3,11.2-4,16
		s-6.4,8.6-11,11.3c-4.7,2.8-9.8,4.1-15.4,4.1L902.6,105.8L902.6,105.8z M925.9,91.9c3,0,5.7-0.7,8.2-2.2s4.4-3.6,5.8-6.2
		c1.4-2.7,2.2-5.7,2.2-9c0-3.4-0.7-6.4-2.2-9c-1.4-2.7-3.4-4.7-5.8-6.2c-2.5-1.5-5.2-2.2-8.2-2.2h-9v35h9V91.9z"/>
	<path class="st2" d="M1021.5,105.8h-15.7l-4-12.6h-24.2l-4,12.6h-15.7l21.5-62.9h20.7L1021.5,105.8z M988.7,58.2l-7.2,22.4h16.2
		l-7.2-22.4H988.7z"/>
	<path class="st2" d="M1038,102.5c-4.7-2.8-8.3-6.6-11-11.5s-4-10.4-4-16.6s1.3-11.7,4-16.6s6.4-8.8,11-11.5
		c4.7-2.8,9.8-4.2,15.4-4.2s10.8,1.4,15.4,4.2c4.7,2.8,8.4,6.6,11,11.5c2.7,4.9,4,10.4,4,16.6s-1.3,11.7-4,16.6s-6.4,8.8-11,11.5
		c-4.7,2.8-9.8,4.2-15.4,4.2S1042.6,105.3,1038,102.5z M1061.6,90.5c2.5-1.5,4.4-3.7,5.8-6.5s2.2-6,2.2-9.7s-0.7-6.9-2.2-9.7
		c-1.4-2.8-3.4-4.9-5.8-6.5c-2.5-1.5-5.2-2.3-8.2-2.3s-5.7,0.8-8.2,2.3s-4.4,3.7-5.8,6.5c-1.4,2.8-2.2,6-2.2,9.7s0.7,6.9,2.2,9.7
		c1.4,2.8,3.4,4.9,5.8,6.5c2.5,1.5,5.2,2.3,8.2,2.3C1056.4,92.8,1059.1,92,1061.6,90.5z"/>
</g>
</svg>
