<svg version="1.1" id="Layer_1" xmlns="http://www.w3.org/2000/svg" xmlns:xlink="http://www.w3.org/1999/xlink" x="0px" y="0px"
	 width="100%" viewBox="0 0 2000 773" enable-background="new 0 0 2000 773" xml:space="preserve">
<path fill="#000000" opacity="1.000000" stroke="none" 
	d="
M1526.000000,774.000000 
	C1017.333435,774.000000 509.166840,774.000000 1.000205,774.000000 
	C1.000136,516.333496 1.000136,258.666931 1.000068,1.000308 
	C667.666443,1.000206 1334.332886,1.000206 2000.999512,1.000103 
	C2000.999634,258.666351 2000.999634,516.332703 2000.999756,773.999512 
	C1842.833374,774.000000 1684.666626,774.000000 1526.000000,774.000000 
M1019.132751,573.956543 
	C995.821106,573.971252 972.509460,574.001282 949.197815,573.997986 
	C857.118042,573.985107 765.038330,573.961792 673.418091,573.206848 
	C695.403381,573.138855 717.388672,573.010620 739.373962,573.012390 
	C931.169373,573.027771 1122.964722,572.997253 1314.760132,573.127686 
	C1409.038208,573.191772 1503.316162,573.586548 1597.594116,573.790527 
	C1629.587769,573.859741 1661.581665,573.802246 1693.575439,573.803772 
	C1731.234863,573.805542 1768.894287,573.833374 1806.553345,573.733154 
	C1808.316772,573.728516 1810.077148,572.586914 1812.141235,571.193542 
	C1813.037720,557.461914 1814.070312,543.737488 1814.801880,529.997070 
	C1816.231445,503.141815 1817.538940,476.279846 1818.807861,449.416443 
	C1819.608032,432.475433 1820.129028,415.520844 1820.986206,398.583038 
	C1822.160278,375.389404 1823.589966,352.208740 1824.798340,329.016693 
	C1825.343018,318.565521 1825.513062,308.095062 1826.037598,297.642609 
	C1826.910767,280.239441 1828.020996,262.847504 1828.752441,245.439072 
	C1828.823975,243.737152 1827.376709,241.245621 1825.891968,240.345718 
	C1822.058960,238.022430 1817.812988,236.378860 1813.726074,234.476456 
	C1809.089111,232.317993 1804.445557,230.173325 1799.986450,227.277191 
	C1799.643921,226.511703 1799.301270,225.746216 1798.169922,224.856277 
	C1797.110107,224.905548 1796.050293,224.954834 1794.054443,225.000336 
	C1700.155151,225.000244 1606.255859,224.994308 1512.356567,225.043457 
	C1510.543945,225.044403 1508.731689,225.694061 1507.000122,226.072311 
	C1507.000122,226.072311 1507.057007,226.006638 1506.135010,226.000504 
	C1244.256836,226.000351 982.378601,225.999771 720.500366,226.008804 
	C718.675171,226.008865 716.849976,226.141205 714.385620,226.257675 
	C714.251892,226.856766 714.118103,227.455856 713.424133,228.005768 
	C713.236755,228.000092 713.049377,227.994415 712.781738,227.144089 
	C711.174927,209.329758 709.531555,191.518616 707.972046,173.700134 
	C706.571167,157.694077 705.715088,141.624725 703.770813,125.686745 
	C702.192566,112.749367 693.465149,104.323463 682.150330,99.520561 
	C676.473877,97.111038 669.477295,97.275383 663.071777,97.236214 
	C651.288940,97.164162 639.502686,97.839691 627.715942,98.126152 
	C622.726318,98.247414 617.728760,98.062447 612.740295,98.206642 
	C593.135559,98.773354 573.533752,99.444550 553.929199,100.019867 
	C540.683350,100.408569 527.435059,100.722107 514.187012,101.032242 
	C499.221985,101.382584 484.256897,101.744308 469.290192,102.006393 
	C445.015961,102.431465 420.737946,102.668167 396.466064,103.193779 
	C375.694794,103.643585 354.930206,104.399597 334.161987,104.996323 
	C321.255463,105.367165 308.348083,105.710045 295.440308,106.035439 
	C281.653595,106.382980 267.866089,106.700493 254.078705,107.021393 
	C239.012695,107.372070 223.947357,107.760330 208.879974,108.037430 
	C200.046844,108.199875 193.044113,111.982788 186.707367,118.309380 
	C185.078125,119.411072 183.510025,120.620567 181.804565,121.587837 
	C179.548233,122.867531 175.355988,123.738800 175.185013,125.167336 
	C174.466522,131.170135 168.135941,129.697159 165.276794,133.492310 
	C161.892914,137.983917 157.177872,141.650452 154.335800,147.606155 
	C152.936890,152.597900 150.123306,157.667572 150.393188,162.567398 
	C151.366180,180.232162 153.432419,197.834946 154.981476,215.470306 
	C156.386475,231.465469 157.687317,247.470016 158.976639,263.475067 
	C160.678741,284.604645 162.328766,305.738434 163.993790,326.871002 
	C165.671997,348.170959 167.125900,369.491364 169.077682,390.766144 
	C170.860794,410.202209 173.178574,429.589233 175.158066,449.578186 
	C175.456665,450.044128 175.755264,450.510071 176.040283,451.811218 
	C176.758499,455.203125 177.476715,458.595001 178.095718,462.782440 
	C178.413712,464.234436 178.697327,465.694977 179.054779,467.137207 
	C186.691696,497.949890 197.482391,527.487732 215.171844,554.088440 
	C224.333054,567.864624 233.813782,581.495178 245.264832,593.493835 
	C252.946213,601.542542 259.202362,610.899292 268.225311,617.748169 
	C274.104218,622.210510 279.434784,627.405884 284.906616,632.387573 
	C286.616028,633.943970 287.798370,636.100342 289.568970,637.561768 
	C290.980316,638.726746 293.181244,638.941772 294.576324,640.118408 
	C299.550171,644.313538 304.029572,649.154663 309.278595,652.944519 
	C313.402710,655.922302 318.386536,657.709351 323.350555,660.594116 
	C330.065887,662.995667 334.373566,668.946777 341.320740,671.603333 
	C353.651245,676.318359 364.968201,683.622742 377.154205,688.795410 
	C387.777130,693.304565 399.013489,696.368530 410.510376,700.591370 
	C414.812622,701.617615 419.069733,702.929688 423.425476,703.616882 
	C436.856262,705.735718 450.287994,708.579651 464.732574,705.318726 
	C466.209686,705.496094 467.804138,706.127380 469.145813,705.780640 
	C482.763275,702.261414 496.446075,698.930115 509.884674,694.809509 
	C517.142944,692.583862 523.926941,688.840454 531.008240,685.988647 
	C532.801880,685.266235 535.167786,685.803101 536.810791,684.912537 
	C538.546753,683.971619 539.572021,681.810486 541.191528,680.545776 
	C545.240967,677.383850 551.306641,677.855164 554.616943,673.226196 
	C554.838989,672.915710 555.571411,673.011780 556.021912,672.816162 
	C558.586975,671.701965 561.423401,670.946045 563.628906,669.332214 
	C567.078735,666.807922 569.966980,663.526245 573.353943,660.901978 
	C575.130859,659.525085 577.462402,658.863770 580.288269,657.526978 
	C580.501465,656.891357 581.043701,655.274719 581.669434,653.630127 
	C581.669434,653.630127 581.723083,653.560486 582.461060,653.798157 
	C583.198242,653.085205 583.935425,652.372253 585.200867,651.221436 
	C592.005981,646.740295 598.768127,642.191711 605.640076,637.815613 
	C607.967896,636.333252 610.840210,635.628601 612.984375,633.954590 
	C615.661804,631.864197 617.737061,629.021729 620.269348,626.720825 
	C623.023743,624.218079 626.151855,622.120239 628.853394,619.567017 
	C633.565979,615.113220 638.104065,610.472961 642.664551,605.860657 
	C647.611206,600.857788 652.717957,595.988464 657.346375,590.703186 
	C661.195190,586.308105 664.395996,581.350525 668.018677,576.748108 
	C668.741516,575.829712 670.074524,575.391541 671.999695,574.953247 
	C754.898865,574.968628 837.797974,574.993347 920.697144,574.994751 
	C953.821228,574.995300 986.945312,574.944214 1020.995117,574.994080 
	C1115.457642,574.994080 1209.920044,574.994080 1304.382568,574.994080 
	C1304.383545,574.662720 1304.384521,574.331360 1304.385498,574.000000 
	C1302.753418,574.000000 1301.121216,574.000000 1299.489014,574.000000 
	C1265.831543,574.000000 1232.173950,573.990479 1198.516479,574.002014 
	C1139.033691,574.022461 1079.551025,574.055725 1019.132751,573.956543 
M1754.500000,576.000000 
	C1773.454102,576.000000 1792.408325,576.000000 1811.362427,576.000000 
	C1811.361206,575.763306 1811.359985,575.526611 1811.358765,575.289917 
	C1738.803345,575.289917 1666.247925,575.289917 1593.692505,575.289917 
	C1593.692261,575.526611 1593.691895,575.763306 1593.691528,576.000000 
	C1646.961060,576.000000 1700.230469,576.000000 1754.500000,576.000000 
M566.664856,96.997322 
	C564.653015,96.997322 562.641113,96.997322 560.629272,96.997322 
	C560.633850,97.242157 560.638489,97.486992 560.643127,97.731827 
	C574.551514,97.731827 588.459839,97.731827 602.368225,97.731827 
	C602.368652,97.483849 602.369141,97.235870 602.369568,96.987892 
	C590.788269,96.987892 579.207031,96.987892 566.664856,96.997322 
M303.824493,104.057671 
	C314.406342,104.057671 324.988159,104.057671 335.570007,104.057671 
	C335.567566,103.803719 335.565125,103.549774 335.562683,103.295822 
	C323.380463,103.295822 311.198242,103.295822 299.016052,103.295822 
	C299.015564,103.551155 299.015106,103.806488 299.014618,104.061821 
	C300.316833,104.061821 301.619019,104.061821 303.824493,104.057671 
M250.956528,104.973183 
	C240.387711,104.973183 229.818909,104.973183 219.250092,104.973183 
	C220.242645,105.443420 221.226425,105.582184 222.212021,105.596619 
	C232.007584,105.740067 241.803421,105.867653 251.599533,105.961281 
	C251.816284,105.963364 252.037354,105.512375 252.256424,105.272743 
	C252.114365,105.186447 251.972305,105.100143 250.956528,104.973183 
M521.869324,98.742737 
	C531.734863,98.742737 541.600403,98.742737 551.465942,98.742737 
	C551.464111,98.726105 551.462280,98.709465 551.460449,98.692833 
	C541.787415,98.692833 532.114319,98.692833 521.869324,98.742737 
M285.346588,105.043007 
	C287.400848,105.043007 289.455078,105.043007 291.509338,105.043007 
	C291.505066,104.779564 291.500763,104.516129 291.496490,104.252686 
	C281.538513,104.252686 271.580566,104.252686 261.622589,104.252686 
	C261.620880,104.508034 261.619171,104.763374 261.617462,105.018723 
	C269.206055,105.018723 276.794617,105.018723 285.346588,105.043007 
z"/>
<path fill="#E8E9E8" opacity="1.000000" stroke="none" 
	d="
M1798.958618,224.980743 
	C1799.301270,225.746216 1799.643921,226.511703 1799.583008,227.920990 
	C1798.817383,233.535858 1798.366577,238.502335 1798.107910,243.478790 
	C1796.770752,269.201599 1795.493774,294.927460 1794.174805,320.651215 
	C1792.872681,346.046997 1791.531250,371.440796 1790.233521,396.836823 
	C1788.842407,424.061005 1787.484497,451.286865 1786.106934,478.511749 
	C1784.763550,505.066284 1783.413696,531.620483 1781.594482,558.203613 
	C1779.622925,558.239624 1778.123291,558.253296 1776.623779,558.253174 
	C1442.224121,558.223450 1107.824585,558.194519 773.424927,558.158447 
	C752.265808,558.156189 731.106689,558.098267 709.984558,557.698730 
	C710.569824,556.122131 711.058105,554.881409 711.674988,553.708374 
	C729.144287,520.489136 739.165344,485.049988 741.742493,447.716949 
	C742.939270,430.379700 742.330139,412.892914 742.015564,395.483398 
	C741.724854,379.395081 740.861816,363.312683 740.015503,347.240051 
	C739.196472,331.682312 738.040039,316.142609 737.098877,300.590942 
	C735.696594,277.420258 734.353149,254.246002 733.266907,230.760864 
	C735.689575,230.299789 737.830017,230.020981 739.970459,230.020859 
	C1090.435181,230.000412 1440.900024,229.999969 1791.364746,229.998749 
	C1793.208984,229.998749 1795.053101,229.998749 1797.786499,229.998749 
	C1795.872437,228.937042 1794.922852,228.410339 1794.185303,227.559494 
	C1795.861938,226.371185 1798.936157,228.763107 1798.958618,224.980743 
M1089.346191,418.792664 
	C1089.573364,418.486603 1089.800537,418.180542 1090.918945,417.568542 
	C1123.331909,417.568542 1155.744751,417.568542 1188.539307,417.568542 
	C1189.360596,400.976868 1190.137939,385.272217 1190.942261,369.022491 
	C1157.356689,369.022491 1124.454956,369.022491 1091.102295,369.022491 
	C1091.912720,353.105286 1092.695801,337.726013 1093.503662,321.860565 
	C1129.250610,321.860565 1164.493408,321.860565 1200.140991,321.860565 
	C1200.962891,304.992310 1201.760742,288.617706 1202.564331,272.127502 
	C1149.130859,272.127502 1096.237061,272.127502 1043.000610,272.127502 
	C1038.827637,353.124481 1034.670166,433.819427 1030.503906,514.684692 
	C1084.064941,514.684692 1136.812866,514.684692 1190.134521,514.684692 
	C1191.003174,498.100708 1191.859863,481.746735 1192.746704,464.815063 
	C1157.010498,464.815063 1121.780518,464.815063 1085.990601,464.815063 
	C1086.958130,449.171478 1087.889771,434.106659 1089.346191,418.792664 
M1399.013184,454.530487 
	C1402.804321,474.615601 1406.595581,494.700714 1410.343750,514.557617 
	C1411.083008,514.831177 1411.386597,515.041443 1411.690552,515.042053 
	C1433.020630,515.085693 1454.351318,515.048462 1475.680420,515.212219 
	C1478.771362,515.235901 1479.141602,513.372009 1479.734253,511.283142 
	C1501.952515,432.975983 1524.173828,354.669708 1546.377686,276.358459 
	C1546.761597,275.004211 1546.936523,273.590729 1547.299561,271.743988 
	C1529.455933,271.743988 1512.143677,271.870819 1494.835815,271.648712 
	C1490.845947,271.597534 1489.131714,272.657410 1488.032471,276.689819 
	C1475.429565,322.919983 1462.599976,369.088348 1449.840820,415.275940 
	C1449.167603,417.712921 1448.776733,419.934570 1445.180420,419.843506 
	C1441.535645,419.751221 1441.376099,417.529572 1440.882568,415.008698 
	C1434.932251,384.615662 1428.944824,354.229919 1422.962891,323.843109 
	C1419.564331,306.579529 1416.157715,289.317596 1412.693481,271.744202 
	C1395.668457,271.744202 1379.021240,271.931061 1362.382935,271.626678 
	C1357.593750,271.539032 1355.581177,272.956451 1354.200317,277.648590 
	C1340.805908,323.156677 1327.047241,368.557617 1313.664429,414.069061 
	C1312.142944,419.243469 1309.674316,420.217041 1304.954712,418.748444 
	C1296.448486,369.903778 1287.943726,321.067596 1279.412842,272.080811 
	C1259.996460,272.080811 1240.908813,272.080811 1221.580688,272.080811 
	C1221.899414,274.347931 1222.110352,276.327545 1222.462891,278.281616 
	C1225.980713,297.779480 1229.526245,317.272339 1233.055420,336.768127 
	C1243.495605,394.440582 1253.975342,452.106018 1264.277954,509.803040 
	C1265.014526,513.928284 1266.536011,515.103271 1270.685303,515.051636 
	C1289.847778,514.813049 1309.017212,514.784241 1328.178589,515.066467 
	C1332.585693,515.131287 1334.088623,513.487305 1335.203491,509.582306 
	C1343.749268,479.649841 1352.491089,449.773376 1361.185303,419.883331 
	C1366.106689,402.964355 1371.052979,386.052643 1375.990479,369.129425 
	C1378.425415,369.129425 1380.531006,369.129425 1382.930420,369.129425 
	C1388.266602,397.448364 1393.564575,425.565155 1399.013184,454.530487 
M795.154358,333.700653 
	C792.058716,393.973053 788.963074,454.245453 785.864807,514.569824 
	C803.951660,514.569824 821.196533,514.569824 838.840210,514.569824 
	C841.367554,465.930878 843.879089,417.597015 846.382446,369.420074 
	C851.186951,367.827148 853.575806,369.372498 855.508240,373.706665 
	C875.769531,419.149506 896.274475,464.483673 916.572815,509.910126 
	C918.202332,513.556885 920.054688,515.157837 924.274902,515.056396 
	C937.097900,514.748291 949.932922,514.945496 962.763306,514.945679 
	C969.553650,514.945801 976.343994,514.945740 983.637207,514.945740 
	C987.826721,433.741333 991.991333,353.019684 996.160889,272.203003 
	C978.141785,272.203003 960.776672,272.203003 943.193542,272.203003 
	C941.875977,296.679352 940.542114,320.770996 939.292480,344.867035 
	C938.036682,369.082672 936.864807,393.302643 935.670288,417.238586 
	C930.717529,418.772827 928.469543,417.348022 926.591675,413.133148 
	C906.344299,367.688812 885.805298,322.374420 865.557190,276.930420 
	C863.771912,272.923706 861.690674,271.661957 857.405884,271.722443 
	C839.580200,271.974213 821.748962,271.828613 803.919739,271.828796 
	C802.152100,271.828827 800.384460,271.828827 798.451355,271.828827 
	C797.335876,292.562958 796.254700,312.659027 795.154358,333.700653 
M1728.505249,298.027771 
	C1720.901123,288.659515 1711.573730,281.431458 1700.402222,276.994171 
	C1669.832642,264.852081 1638.823853,264.099976 1608.424194,276.714752 
	C1581.749634,287.783661 1565.083740,307.983154 1561.609985,337.237793 
	C1557.525757,371.634277 1570.307007,396.943237 1606.211548,407.192230 
	C1619.775146,411.063965 1633.909058,412.893829 1647.673584,416.121063 
	C1657.025635,418.313690 1666.700317,420.211273 1675.320068,424.205811 
	C1690.081421,431.046356 1692.133545,448.859741 1680.000000,459.786224 
	C1676.630859,462.820404 1672.363159,465.298340 1668.075684,466.786346 
	C1656.504272,470.802155 1644.464722,471.088684 1632.552490,468.624786 
	C1616.731567,465.352478 1605.106445,454.347565 1604.367920,438.062103 
	C1604.326172,437.141235 1604.000000,436.233246 1603.836792,435.463745 
	C1586.218750,435.463745 1568.975220,435.463745 1551.458618,435.463745 
	C1551.362793,437.429535 1551.209961,439.063782 1551.214111,440.697601 
	C1551.298584,474.669159 1571.798462,502.342072 1605.383301,512.888977 
	C1631.880615,521.210144 1658.739868,520.831909 1685.081787,512.597656 
	C1722.218994,500.988831 1741.947754,472.871826 1741.029785,434.618347 
	C1740.415039,408.996307 1729.308838,389.847931 1704.877563,380.677307 
	C1691.890503,375.802429 1677.998413,373.296661 1664.458984,369.947632 
	C1651.560059,366.757050 1638.369629,364.559845 1625.720825,360.603821 
	C1616.321899,357.664215 1612.814087,349.543365 1614.591064,339.798462 
	C1615.921631,332.501465 1619.935669,327.020416 1626.100586,322.995575 
	C1640.060181,313.881897 1664.363159,314.489929 1677.748901,324.397736 
	C1685.061646,329.810486 1689.484497,336.994049 1690.572388,346.114197 
	C1690.763550,347.716919 1690.949463,349.320282 1691.141724,350.955505 
	C1708.822144,350.955505 1726.222534,350.955505 1743.939331,350.955505 
	C1744.777588,331.571411 1740.704346,313.996216 1728.505249,298.027771 
z"/>
<path fill="#4A6EFC" opacity="1.000000" stroke="none" 
	d="
M187.299332,118.456009 
	C193.044113,111.982788 200.046844,108.199875 208.879974,108.037430 
	C223.947357,107.760330 239.012695,107.372070 254.078705,107.021393 
	C267.866089,106.700493 281.653595,106.382980 295.440308,106.035439 
	C308.348083,105.710045 321.255463,105.367165 334.161987,104.996323 
	C354.930206,104.399597 375.694794,103.643585 396.466064,103.193779 
	C420.737946,102.668167 445.015961,102.431465 469.290192,102.006393 
	C484.256897,101.744308 499.221985,101.382584 514.187012,101.032242 
	C527.435059,100.722107 540.683350,100.408569 553.929199,100.019867 
	C573.533752,99.444550 593.135559,98.773354 612.740295,98.206642 
	C617.728760,98.062447 622.726318,98.247414 627.715942,98.126152 
	C639.502686,97.839691 651.288940,97.164162 663.071777,97.236214 
	C669.477295,97.275383 676.473877,97.111038 682.150330,99.520561 
	C693.465149,104.323463 702.192566,112.749367 703.770813,125.686745 
	C705.715088,141.624725 706.571167,157.694077 707.972046,173.700134 
	C709.531555,191.518616 711.174927,209.329758 712.711243,227.772980 
	C712.656677,228.973297 712.672607,229.544708 712.678162,230.367981 
	C712.710083,230.782440 712.752319,230.945038 712.780762,231.565369 
	C714.239258,251.907639 715.669128,271.795471 717.199768,291.675568 
	C718.117920,303.601685 719.197571,315.515350 720.197449,327.435211 
	C721.780273,346.303955 724.243713,365.152130 724.693359,384.048035 
	C725.167114,403.956848 724.329712,423.953949 722.958557,443.836151 
	C720.934509,473.185791 712.943420,501.093201 699.365295,527.227783 
	C693.930847,537.687683 687.570435,547.666504 681.381104,558.047424 
	C680.308044,559.441528 679.485413,560.652466 678.403748,562.065186 
	C675.828308,565.867065 673.511841,569.467224 671.156738,573.343201 
	C671.120850,573.990051 671.123535,574.361023 671.126221,574.731934 
	C670.074524,575.391541 668.741516,575.829712 668.018677,576.748108 
	C664.395996,581.350525 661.195190,586.308105 657.346375,590.703186 
	C652.717957,595.988464 647.611206,600.857788 642.664551,605.860657 
	C638.104065,610.472961 633.565979,615.113220 628.853394,619.567017 
	C626.151855,622.120239 623.023743,624.218079 620.269348,626.720825 
	C617.737061,629.021729 615.661804,631.864197 612.984375,633.954590 
	C610.840210,635.628601 607.967896,636.333252 605.640076,637.815613 
	C598.768127,642.191711 592.005981,646.740295 584.622559,651.467163 
	C583.270569,652.328796 582.496826,652.944641 581.723083,653.560486 
	C581.723083,653.560486 581.669434,653.630127 581.277344,653.659607 
	C579.832520,654.179871 578.743835,654.606323 577.732056,655.170776 
	C548.525452,671.464172 517.956055,683.441833 483.739319,684.771973 
	C483.060425,684.778137 482.672791,684.829956 481.945984,684.682983 
	C479.808533,684.484314 478.010284,684.484314 475.751282,684.374390 
	C462.187225,681.983582 449.083893,679.702637 435.619507,677.265747 
	C413.324188,670.549377 392.764893,660.812744 372.650665,650.040039 
	C366.826324,646.920776 360.956696,643.886047 354.932007,640.519531 
	C345.911255,633.761536 336.936096,627.466431 328.245239,620.800720 
	C299.176514,598.505554 274.048035,572.409363 252.412979,542.809875 
	C233.362579,516.746521 220.254395,488.035126 211.966736,456.970734 
	C210.008209,449.629639 207.901169,442.328156 205.922852,434.569336 
	C205.910141,432.309967 205.976578,430.471497 205.741241,428.672485 
	C204.210327,416.969055 202.226715,405.310577 201.122711,393.568634 
	C199.082748,371.871368 197.544403,350.126984 195.799438,328.402039 
	C193.162018,295.566376 190.549271,262.728760 187.881378,229.895584 
	C186.412796,211.822266 184.636154,193.771149 183.401718,175.682495 
	C182.383316,160.759720 181.957977,145.796494 181.384277,130.544708 
	C183.432266,126.310829 185.365799,122.383415 187.299332,118.456009 
M701.090149,389.516266 
	C698.110901,350.151764 695.225403,310.779907 692.127747,271.424744 
	C688.572327,226.253998 684.837769,181.097336 681.160828,135.936203 
	C680.298218,125.341438 675.897766,121.426712 665.373779,121.694649 
	C650.716187,122.067841 636.058228,122.429108 621.399780,122.769501 
	C579.423645,123.744278 537.447205,124.707123 495.470856,125.672531 
	C420.511139,127.396530 345.551453,129.120621 270.591675,130.840866 
	C252.933838,131.246109 235.274200,131.582458 217.618179,132.054794 
	C208.144196,132.308243 203.820724,136.788574 204.441620,145.685608 
	C205.334595,158.481033 206.353317,171.268036 207.378784,184.053787 
	C210.921310,228.222641 214.303558,272.405487 218.112259,316.551453 
	C220.788651,347.573273 223.368546,378.631042 227.268784,409.511444 
	C230.804321,437.504150 237.923767,464.794220 249.853500,490.534729 
	C265.857330,525.065796 289.320038,554.151855 317.155884,579.717041 
	C356.257446,615.628784 400.265472,643.129395 452.676300,655.083435 
	C464.268311,657.727356 476.362701,659.874756 488.138916,659.502502 
	C498.911377,659.161987 509.836334,655.931458 520.226685,652.541809 
	C567.017883,637.277161 605.827515,609.873169 637.899841,572.860779 
	C661.782898,545.298950 681.404541,515.092224 691.524780,479.603760 
	C699.825378,450.496063 701.864197,420.633942 701.090149,389.516266 
z"/>
<path fill="#7C7C7C" opacity="1.000000" stroke="none" 
	d="
M671.195435,573.067322 
	C673.511841,569.467224 675.828308,565.867065 678.757385,562.320374 
	C679.746582,565.090881 680.123108,567.807983 680.559509,570.956787 
	C687.078186,570.956787 693.366882,571.067871 699.645386,570.864563 
	C700.923950,570.823059 702.676575,569.915344 703.327698,568.861511 
	C705.400085,565.506836 707.055969,561.894775 709.142456,558.306335 
	C709.590576,558.175781 709.769043,558.120972 709.947571,558.066162 
	C731.106689,558.098267 752.265808,558.156189 773.424927,558.158447 
	C1107.824585,558.194519 1442.224121,558.223450 1776.623779,558.253174 
	C1778.123291,558.253296 1779.622925,558.239624 1781.807373,558.454346 
	C1787.188721,561.050354 1791.811523,563.586853 1796.601685,565.753723 
	C1801.596802,568.013123 1806.753052,569.916077 1811.838867,571.974854 
	C1810.077148,572.586914 1808.316772,573.728516 1806.553345,573.733154 
	C1768.894287,573.833374 1731.234863,573.805542 1693.575439,573.803772 
	C1661.581665,573.802246 1629.587769,573.859741 1597.594116,573.790527 
	C1503.316162,573.586548 1409.038208,573.191772 1314.760132,573.127686 
	C1122.964722,572.997253 931.169373,573.027771 739.373962,573.012390 
	C717.388672,573.010620 695.403381,573.138855 672.952026,573.502747 
	C672.055786,573.554871 671.625610,573.311096 671.195435,573.067322 
z"/>
<path fill="#8D8D8D" opacity="1.000000" stroke="none" 
	d="
M1811.989990,571.584229 
	C1806.753052,569.916077 1801.596802,568.013123 1796.601685,565.753723 
	C1791.811523,563.586853 1787.188721,561.050354 1782.279541,558.425537 
	C1783.413696,531.620483 1784.763550,505.066284 1786.106934,478.511749 
	C1787.484497,451.286865 1788.842407,424.061005 1790.233521,396.836823 
	C1791.531250,371.440796 1792.872681,346.046997 1794.174805,320.651215 
	C1795.493774,294.927460 1796.770752,269.201599 1798.107910,243.478790 
	C1798.366577,238.502335 1798.817383,233.535858 1799.492188,228.293732 
	C1804.445557,230.173325 1809.089111,232.317993 1813.726074,234.476456 
	C1817.812988,236.378860 1822.058960,238.022430 1825.891968,240.345718 
	C1827.376709,241.245621 1828.823975,243.737152 1828.752441,245.439072 
	C1828.020996,262.847504 1826.910767,280.239441 1826.037598,297.642609 
	C1825.513062,308.095062 1825.343018,318.565521 1824.798340,329.016693 
	C1823.589966,352.208740 1822.160278,375.389404 1820.986206,398.583038 
	C1820.129028,415.520844 1819.608032,432.475433 1818.807861,449.416443 
	C1817.538940,476.279846 1816.231445,503.141815 1814.801880,529.997070 
	C1814.070312,543.737488 1813.037720,557.461914 1811.989990,571.584229 
z"/>
<path fill="#17245B" opacity="1.000000" stroke="none" 
	d="
M181.269836,130.851181 
	C181.957977,145.796494 182.383316,160.759720 183.401718,175.682495 
	C184.636154,193.771149 186.412796,211.822266 187.881378,229.895584 
	C190.549271,262.728760 193.162018,295.566376 195.799438,328.402039 
	C197.544403,350.126984 199.082748,371.871368 201.122711,393.568634 
	C202.226715,405.310577 204.210327,416.969055 205.741241,428.672485 
	C205.976578,430.471497 205.910141,432.309967 205.593872,434.625366 
	C197.508026,442.407593 189.811554,449.694611 181.818497,457.262451 
	C180.885117,458.479401 179.540039,460.233154 178.194946,461.986908 
	C177.476715,458.595001 176.758499,455.203125 176.261002,451.233063 
	C176.074722,450.102570 175.667725,449.550201 175.260727,448.997864 
	C173.178574,429.589233 170.860794,410.202209 169.077682,390.766144 
	C167.125900,369.491364 165.671997,348.170959 163.993790,326.871002 
	C162.328766,305.738434 160.678741,284.604645 158.976639,263.475067 
	C157.687317,247.470016 156.386475,231.465469 154.981476,215.470306 
	C153.432419,197.834946 151.366180,180.232162 150.393188,162.567398 
	C150.123306,157.667572 152.936890,152.597900 154.972076,147.313660 
	C157.490570,146.085754 159.485794,145.323792 161.234985,144.184189 
	C167.956024,139.805481 174.598221,135.305756 181.269836,130.851181 
z"/>
<path fill="#112059" opacity="1.000000" stroke="none" 
	d="
M178.145325,462.384674 
	C179.540039,460.233154 180.885117,458.479401 181.818497,457.262451 
	C189.811554,449.694611 197.508026,442.407593 205.533463,435.064514 
	C207.901169,442.328156 210.008209,449.629639 211.966736,456.970734 
	C220.254395,488.035126 233.362579,516.746521 252.412979,542.809875 
	C274.048035,572.409363 299.176514,598.505554 328.245239,620.800720 
	C336.936096,627.466431 345.911255,633.761536 354.726379,640.810913 
	C350.943634,643.374084 348.113861,648.960693 342.688995,643.960999 
	C342.051605,645.612793 341.904175,647.168091 341.050751,647.992920 
	C338.155212,650.791260 335.147217,655.261841 331.926056,655.490906 
	C327.714813,655.790283 325.130463,656.796265 322.988495,660.025330 
	C318.386536,657.709351 313.402710,655.922302 309.278595,652.944519 
	C304.029572,649.154663 299.550171,644.313538 294.576324,640.118408 
	C293.181244,638.941772 290.980316,638.726746 289.568970,637.561768 
	C287.798370,636.100342 286.616028,633.943970 284.906616,632.387573 
	C279.434784,627.405884 274.104218,622.210510 268.225311,617.748169 
	C259.202362,610.899292 252.946213,601.542542 245.264832,593.493835 
	C233.813782,581.495178 224.333054,567.864624 215.171844,554.088440 
	C197.482391,527.487732 186.691696,497.949890 179.054779,467.137207 
	C178.697327,465.694977 178.413712,464.234436 178.145325,462.384674 
z"/>
<path fill="#16235A" opacity="1.000000" stroke="none" 
	d="
M323.169525,660.309692 
	C325.130463,656.796265 327.714813,655.790283 331.926056,655.490906 
	C335.147217,655.261841 338.155212,650.791260 341.050751,647.992920 
	C341.904175,647.168091 342.051605,645.612793 342.688995,643.960999 
	C348.113861,648.960693 350.943634,643.374084 354.902191,641.104004 
	C360.956696,643.886047 366.826324,646.920776 372.650665,650.040039 
	C392.764893,660.812744 413.324188,670.549377 435.614227,677.599487 
	C433.033752,680.753601 430.155457,683.486206 427.134888,686.051270 
	C425.780640,687.201172 424.097351,687.953918 422.641266,688.995789 
	C419.903107,690.955139 417.113403,692.866394 414.554260,695.043396 
	C412.842285,696.499695 411.491302,698.380310 409.978821,700.071045 
	C399.013489,696.368530 387.777130,693.304565 377.154205,688.795410 
	C364.968201,683.622742 353.651245,676.318359 341.320740,671.603333 
	C334.373566,668.946777 330.065887,662.995667 323.169525,660.309692 
z"/>
<path fill="#F6F7F6" opacity="1.000000" stroke="none" 
	d="
M712.688538,230.116119 
	C712.672607,229.544708 712.656677,228.973297 712.751343,228.195312 
	C713.049377,227.994415 713.236755,228.000092 713.795715,228.196320 
	C714.454041,228.283279 714.740784,228.179688 715.481201,228.054855 
	C790.560120,228.051437 865.185303,228.081009 939.810486,228.084763 
	C1127.207275,228.094193 1314.604004,228.092575 1502.000854,228.084793 
	C1503.658081,228.084717 1505.315430,227.939316 1507.438965,227.927719 
	C1541.521606,227.990051 1575.137939,227.995178 1608.754395,227.980835 
	C1670.494019,227.954483 1732.233765,227.916687 1793.973389,227.883636 
	C1794.922852,228.410339 1795.872437,228.937042 1797.786499,229.998749 
	C1795.053101,229.998749 1793.208984,229.998749 1791.364746,229.998749 
	C1440.900024,229.999969 1090.435181,230.000412 739.970459,230.020859 
	C737.830017,230.020981 735.689575,230.299789 732.801697,230.743530 
	C726.129150,230.772873 720.204102,230.507111 713.883545,230.182175 
	C713.221680,230.120697 712.955139,230.118408 712.688538,230.116119 
z"/>
<path fill="#1D285D" opacity="1.000000" stroke="none" 
	d="
M410.244598,700.331177 
	C411.491302,698.380310 412.842285,696.499695 414.554260,695.043396 
	C417.113403,692.866394 419.903107,690.955139 422.641266,688.995789 
	C424.097351,687.953918 425.780640,687.201172 427.134888,686.051270 
	C430.155457,683.486206 433.033752,680.753601 435.975281,677.755493 
	C449.083893,679.702637 462.187225,681.983582 476.062164,684.553955 
	C478.650909,684.856201 480.468048,684.868958 482.285187,684.881714 
	C482.672791,684.829956 483.060425,684.778137 483.728058,685.156128 
	C481.701050,688.168274 479.544617,690.907410 477.053467,693.297729 
	C472.794434,697.384338 468.325653,701.252380 463.944977,705.212280 
	C450.287994,708.579651 436.856262,705.735718 423.425476,703.616882 
	C419.069733,702.929688 414.812622,701.617615 410.244598,700.331177 
z"/>
<path fill="#283162" opacity="1.000000" stroke="none" 
	d="
M464.338776,705.265503 
	C468.325653,701.252380 472.794434,697.384338 477.053467,693.297729 
	C479.544617,690.907410 481.701050,688.168274 484.019348,685.201782 
	C517.956055,683.441833 548.525452,671.464172 577.732056,655.170776 
	C578.743835,654.606323 579.832520,654.179871 581.235596,653.673584 
	C581.043701,655.274719 580.501465,656.891357 580.288269,657.526978 
	C577.462402,658.863770 575.130859,659.525085 573.353943,660.901978 
	C569.966980,663.526245 567.078735,666.807922 563.628906,669.332214 
	C561.423401,670.946045 558.586975,671.701965 556.021912,672.816162 
	C555.571411,673.011780 554.838989,672.915710 554.616943,673.226196 
	C551.306641,677.855164 545.240967,677.383850 541.191528,680.545776 
	C539.572021,681.810486 538.546753,683.971619 536.810791,684.912537 
	C535.167786,685.803101 532.801880,685.266235 531.008240,685.988647 
	C523.926941,688.840454 517.142944,692.583862 509.884674,694.809509 
	C496.446075,698.930115 482.763275,702.261414 469.145813,705.780640 
	C467.804138,706.127380 466.209686,705.496094 464.338776,705.265503 
z"/>
<path fill="#FFFFFF" opacity="1.000000" stroke="none" 
	d="
M715.024780,226.211792 
	C716.849976,226.141205 718.675171,226.008865 720.500366,226.008804 
	C982.378601,225.999771 1244.256836,226.000351 1506.535034,226.214615 
	C1506.935059,226.428726 1506.965576,226.868362 1506.514160,226.929733 
	C1243.550659,226.994064 981.038635,226.997192 718.526672,226.995575 
	C717.362549,226.995560 716.198486,226.928223 715.049561,226.721954 
	C715.064819,226.551559 715.024780,226.211792 715.024780,226.211792 
z"/>
<path fill="#242424" opacity="1.000000" stroke="none" 
	d="
M1506.965576,226.868362 
	C1506.965576,226.868362 1506.935059,226.428726 1506.996094,226.217682 
	C1507.057007,226.006638 1507.000122,226.072311 1507.431152,226.005661 
	C1601.750244,225.936035 1695.638306,225.938309 1789.526367,225.891525 
	C1791.347900,225.890625 1793.169067,225.312759 1794.990479,225.004120 
	C1796.050293,224.954834 1797.110107,224.905548 1798.564209,224.918518 
	C1798.936157,228.763107 1795.861938,226.371185 1794.185303,227.559479 
	C1732.233765,227.916687 1670.494019,227.954483 1608.754395,227.980835 
	C1575.137939,227.995178 1541.521606,227.990051 1507.418945,227.679504 
	C1506.932617,227.365311 1506.965576,226.868362 1506.965576,226.868362 
z"/>
<path fill="#7F7F7F" opacity="1.000000" stroke="none" 
	d="
M671.156738,573.343201 
	C671.625610,573.311096 672.055786,573.554871 672.722290,573.870483 
	C765.038330,573.961792 857.118042,573.985107 949.197815,573.997986 
	C972.509460,574.001282 995.821106,573.971252 1019.522217,574.228394 
	C1019.911621,574.500305 1020.069397,574.916565 1020.069397,574.916626 
	C986.945312,574.944214 953.821228,574.995300 920.697144,574.994751 
	C837.797974,574.993347 754.898865,574.968628 671.562988,574.842651 
	C671.123535,574.361023 671.120850,573.990051 671.156738,573.343201 
z"/>
<path fill="#FFFFFF" opacity="1.000000" stroke="none" 
	d="
M1794.522461,225.002228 
	C1793.169067,225.312759 1791.347900,225.890625 1789.526367,225.891525 
	C1695.638306,225.938309 1601.750244,225.936035 1507.390625,225.990036 
	C1508.731689,225.694061 1510.543945,225.044403 1512.356567,225.043457 
	C1606.255859,224.994308 1700.155151,225.000244 1794.522461,225.002228 
z"/>
<path fill="#FFFFFF" opacity="1.000000" stroke="none" 
	d="
M1020.532227,574.955322 
	C1020.069397,574.916565 1019.911621,574.500305 1019.989990,574.291992 
	C1079.551025,574.055725 1139.033691,574.022461 1198.516479,574.002014 
	C1232.173950,573.990479 1265.831543,574.000000 1299.489014,574.000000 
	C1301.121216,574.000000 1302.753418,574.000000 1304.385498,574.000000 
	C1304.384521,574.331360 1304.383545,574.662720 1304.382568,574.994080 
	C1209.920044,574.994080 1115.457642,574.994080 1020.532227,574.955322 
z"/>
<path fill="#2C3880" opacity="1.000000" stroke="none" 
	d="
M181.384277,130.544708 
	C174.598221,135.305756 167.956024,139.805481 161.234985,144.184189 
	C159.485794,145.323792 157.490570,146.085754 155.224457,147.090027 
	C157.177872,141.650452 161.892914,137.983917 165.276794,133.492310 
	C168.135941,129.697159 174.466522,131.170135 175.185013,125.167336 
	C175.355988,123.738800 179.548233,122.867531 181.804565,121.587837 
	C183.510025,120.620567 185.078125,119.411072 187.003357,118.382690 
	C185.365799,122.383415 183.432266,126.310829 181.384277,130.544708 
z"/>
<path fill="#7F7F7F" opacity="1.000000" stroke="none" 
	d="
M1754.000000,576.000000 
	C1700.230469,576.000000 1646.961060,576.000000 1593.691528,576.000000 
	C1593.691895,575.763306 1593.692261,575.526611 1593.692505,575.289917 
	C1666.247925,575.289917 1738.803345,575.289917 1811.358765,575.289917 
	C1811.359985,575.526611 1811.361206,575.763306 1811.362427,576.000000 
	C1792.408325,576.000000 1773.454102,576.000000 1754.000000,576.000000 
z"/>
<path fill="#476EEC" opacity="1.000000" stroke="none" 
	d="
M567.145264,96.992607 
	C579.207031,96.987892 590.788269,96.987892 602.369568,96.987892 
	C602.369141,97.235870 602.368652,97.483849 602.368225,97.731827 
	C588.459839,97.731827 574.551514,97.731827 560.643127,97.731827 
	C560.638489,97.486992 560.633850,97.242157 560.629272,96.997322 
	C562.641113,96.997322 564.653015,96.997322 567.145264,96.992607 
z"/>
<path fill="#4666EC" opacity="1.000000" stroke="none" 
	d="
M303.372864,104.059746 
	C301.619019,104.061821 300.316833,104.061821 299.014618,104.061821 
	C299.015106,103.806488 299.015564,103.551155 299.016052,103.295822 
	C311.198242,103.295822 323.380463,103.295822 335.562683,103.295822 
	C335.565125,103.549774 335.567566,103.803719 335.570007,104.057671 
	C324.988159,104.057671 314.406342,104.057671 303.372864,104.059746 
z"/>
<path fill="#3F78EF" opacity="1.000000" stroke="none" 
	d="
M251.393387,104.993515 
	C251.972305,105.100143 252.114365,105.186447 252.256409,105.272736 
	C252.037354,105.512375 251.816284,105.963364 251.599533,105.961281 
	C241.803421,105.867653 232.007584,105.740067 222.212021,105.596619 
	C221.226425,105.582184 220.242645,105.443420 219.250092,104.973183 
	C229.818909,104.973183 240.387711,104.973183 251.393387,104.993515 
z"/>
<path fill="#4078F1" opacity="1.000000" stroke="none" 
	d="
M522.155273,98.717789 
	C532.114319,98.692833 541.787415,98.692833 551.460449,98.692833 
	C551.462280,98.709465 551.464111,98.726105 551.465942,98.742737 
	C541.600403,98.742737 531.734863,98.742737 522.155273,98.717789 
z"/>
<path fill="#4F71F6" opacity="1.000000" stroke="none" 
	d="
M284.864899,105.030869 
	C276.794617,105.018723 269.206055,105.018723 261.617462,105.018723 
	C261.619171,104.763374 261.620880,104.508034 261.622589,104.252686 
	C271.580566,104.252686 281.538513,104.252686 291.496490,104.252686 
	C291.500763,104.516129 291.505066,104.779564 291.509338,105.043007 
	C289.455078,105.043007 287.400848,105.043007 284.864899,105.030869 
z"/>
<path fill="#283162" opacity="1.000000" stroke="none" 
	d="
M582.092041,653.679321 
	C582.496826,652.944641 583.270569,652.328796 584.358398,651.686035 
	C583.935425,652.372253 583.198242,653.085205 582.092041,653.679321 
z"/>
<path fill="#112059" opacity="1.000000" stroke="none" 
	d="
M175.209396,449.288025 
	C175.667725,449.550201 176.074722,450.102570 176.267792,450.815460 
	C175.755264,450.510071 175.456665,450.044128 175.209396,449.288025 
z"/>
<path fill="#E7E8E8" opacity="1.000000" stroke="none" 
	d="
M714.705200,226.234741 
	C715.024780,226.211792 715.064819,226.551559 714.897888,227.017273 
	C714.829773,227.680664 714.928650,227.878372 715.027527,228.076096 
	C714.740784,228.179688 714.454041,228.283279 714.075806,228.220901 
	C714.118103,227.455856 714.251892,226.856766 714.705200,226.234741 
z"/>
<path fill="#010101" opacity="1.000000" stroke="none" 
	d="
M1398.937988,454.106201 
	C1393.564575,425.565155 1388.266602,397.448364 1382.930420,369.129425 
	C1380.531006,369.129425 1378.425415,369.129425 1375.990479,369.129425 
	C1371.052979,386.052643 1366.106689,402.964355 1361.185303,419.883331 
	C1352.491089,449.773376 1343.749268,479.649841 1335.203491,509.582306 
	C1334.088623,513.487305 1332.585693,515.131287 1328.178589,515.066467 
	C1309.017212,514.784241 1289.847778,514.813049 1270.685303,515.051636 
	C1266.536011,515.103271 1265.014526,513.928284 1264.277954,509.803040 
	C1253.975342,452.106018 1243.495605,394.440582 1233.055420,336.768127 
	C1229.526245,317.272339 1225.980713,297.779480 1222.462891,278.281616 
	C1222.110352,276.327545 1221.899414,274.347931 1221.580688,272.080811 
	C1240.908813,272.080811 1259.996460,272.080811 1279.412842,272.080811 
	C1287.943726,321.067596 1296.448486,369.903778 1304.954712,418.748444 
	C1309.674316,420.217041 1312.142944,419.243469 1313.664429,414.069061 
	C1327.047241,368.557617 1340.805908,323.156677 1354.200317,277.648590 
	C1355.581177,272.956451 1357.593750,271.539032 1362.382935,271.626678 
	C1379.021240,271.931061 1395.668457,271.744202 1412.693481,271.744202 
	C1416.157715,289.317596 1419.564331,306.579529 1422.962891,323.843109 
	C1428.944824,354.229919 1434.932251,384.615662 1440.882568,415.008698 
	C1441.376099,417.529572 1441.535645,419.751221 1445.180420,419.843506 
	C1448.776733,419.934570 1449.167603,417.712921 1449.840820,415.275940 
	C1462.599976,369.088348 1475.429565,322.919983 1488.032471,276.689819 
	C1489.131714,272.657410 1490.845947,271.597534 1494.835815,271.648712 
	C1512.143677,271.870819 1529.455933,271.743988 1547.299561,271.743988 
	C1546.936523,273.590729 1546.761597,275.004211 1546.377686,276.358459 
	C1524.173828,354.669708 1501.952515,432.975983 1479.734253,511.283142 
	C1479.141602,513.372009 1478.771362,515.235901 1475.680420,515.212219 
	C1454.351318,515.048462 1433.020630,515.085693 1411.690552,515.042053 
	C1411.386597,515.041443 1411.083008,514.831177 1410.343750,514.557617 
	C1406.595581,494.700714 1402.804321,474.615601 1398.937988,454.106201 
z"/>
<path fill="#010101" opacity="1.000000" stroke="none" 
	d="
M795.163940,333.227905 
	C796.254700,312.659027 797.335876,292.562958 798.451355,271.828827 
	C800.384460,271.828827 802.152100,271.828827 803.919739,271.828796 
	C821.748962,271.828613 839.580200,271.974213 857.405884,271.722443 
	C861.690674,271.661957 863.771912,272.923706 865.557190,276.930420 
	C885.805298,322.374420 906.344299,367.688812 926.591675,413.133148 
	C928.469543,417.348022 930.717529,418.772827 935.670288,417.238586 
	C936.864807,393.302643 938.036682,369.082672 939.292480,344.867035 
	C940.542114,320.770996 941.875977,296.679352 943.193542,272.203003 
	C960.776672,272.203003 978.141785,272.203003 996.160889,272.203003 
	C991.991333,353.019684 987.826721,433.741333 983.637207,514.945740 
	C976.343994,514.945740 969.553650,514.945801 962.763306,514.945679 
	C949.932922,514.945496 937.097900,514.748291 924.274902,515.056396 
	C920.054688,515.157837 918.202332,513.556885 916.572815,509.910126 
	C896.274475,464.483673 875.769531,419.149506 855.508240,373.706665 
	C853.575806,369.372498 851.186951,367.827148 846.382446,369.420074 
	C843.879089,417.597015 841.367554,465.930878 838.840210,514.569824 
	C821.196533,514.569824 803.951660,514.569824 785.864807,514.569824 
	C788.963074,454.245453 792.058716,393.973053 795.163940,333.227905 
z"/>
<path fill="#020202" opacity="1.000000" stroke="none" 
	d="
M1728.733398,298.304565 
	C1740.704346,313.996216 1744.777588,331.571411 1743.939331,350.955505 
	C1726.222534,350.955505 1708.822144,350.955505 1691.141724,350.955505 
	C1690.949463,349.320282 1690.763550,347.716919 1690.572388,346.114197 
	C1689.484497,336.994049 1685.061646,329.810486 1677.748901,324.397736 
	C1664.363159,314.489929 1640.060181,313.881897 1626.100586,322.995575 
	C1619.935669,327.020416 1615.921631,332.501465 1614.591064,339.798462 
	C1612.814087,349.543365 1616.321899,357.664215 1625.720825,360.603821 
	C1638.369629,364.559845 1651.560059,366.757050 1664.458984,369.947632 
	C1677.998413,373.296661 1691.890503,375.802429 1704.877563,380.677307 
	C1729.308838,389.847931 1740.415039,408.996307 1741.029785,434.618347 
	C1741.947754,472.871826 1722.218994,500.988831 1685.081787,512.597656 
	C1658.739868,520.831909 1631.880615,521.210144 1605.383301,512.888977 
	C1571.798462,502.342072 1551.298584,474.669159 1551.214111,440.697601 
	C1551.209961,439.063782 1551.362793,437.429535 1551.458618,435.463745 
	C1568.975220,435.463745 1586.218750,435.463745 1603.836792,435.463745 
	C1604.000000,436.233246 1604.326172,437.141235 1604.367920,438.062103 
	C1605.106445,454.347565 1616.731567,465.352478 1632.552490,468.624786 
	C1644.464722,471.088684 1656.504272,470.802155 1668.075684,466.786346 
	C1672.363159,465.298340 1676.630859,462.820404 1680.000000,459.786224 
	C1692.133545,448.859741 1690.081421,431.046356 1675.320068,424.205811 
	C1666.700317,420.211273 1657.025635,418.313690 1647.673584,416.121063 
	C1633.909058,412.893829 1619.775146,411.063965 1606.211548,407.192230 
	C1570.307007,396.943237 1557.525757,371.634277 1561.609985,337.237793 
	C1565.083740,307.983154 1581.749634,287.783661 1608.424194,276.714752 
	C1638.823853,264.099976 1669.832642,264.852081 1700.402222,276.994171 
	C1711.573730,281.431458 1720.901123,288.659515 1728.733398,298.304565 
z"/>
<path fill="#010101" opacity="1.000000" stroke="none" 
	d="
M1088.821411,419.041809 
	C1087.889771,434.106659 1086.958130,449.171478 1085.990601,464.815063 
	C1121.780518,464.815063 1157.010498,464.815063 1192.746704,464.815063 
	C1191.859863,481.746735 1191.003174,498.100708 1190.134521,514.684692 
	C1136.812866,514.684692 1084.064941,514.684692 1030.503906,514.684692 
	C1034.670166,433.819427 1038.827637,353.124481 1043.000610,272.127502 
	C1096.237061,272.127502 1149.130859,272.127502 1202.564331,272.127502 
	C1201.760742,288.617706 1200.962891,304.992310 1200.140991,321.860565 
	C1164.493408,321.860565 1129.250610,321.860565 1093.503662,321.860565 
	C1092.695801,337.726013 1091.912720,353.105286 1091.102295,369.022491 
	C1124.454956,369.022491 1157.356689,369.022491 1190.942261,369.022491 
	C1190.137939,385.272217 1189.360596,400.976868 1188.539307,417.568542 
	C1155.744751,417.568542 1123.331909,417.568542 1090.112793,417.697388 
	C1089.144775,418.231415 1088.983032,418.636597 1088.821411,419.041809 
z"/>
<path fill="#B7B7B8" opacity="1.000000" stroke="none" 
	d="
M714.278992,230.241364 
	C720.204102,230.507111 726.129150,230.772873 732.519470,231.055969 
	C734.353149,254.246002 735.696594,277.420258 737.098877,300.590942 
	C738.040039,316.142609 739.196472,331.682312 740.015503,347.240051 
	C740.861816,363.312683 741.724854,379.395081 742.015564,395.483398 
	C742.330139,412.892914 742.939270,430.379700 741.742493,447.716949 
	C739.165344,485.049988 729.144287,520.489136 711.674988,553.708374 
	C711.058105,554.881409 710.569824,556.122131 709.984558,557.698730 
	C709.769043,558.120972 709.590576,558.175781 708.694275,558.202881 
	C699.194824,558.071655 690.413147,557.968018 681.631470,557.864319 
	C687.570435,547.666504 693.930847,537.687683 699.365295,527.227783 
	C712.943420,501.093201 720.934509,473.185791 722.958557,443.836151 
	C724.329712,423.953949 725.167114,403.956848 724.693359,384.048035 
	C724.243713,365.152130 721.780273,346.303955 720.197449,327.435211 
	C719.197571,315.515350 718.117920,303.601685 717.199768,291.675568 
	C715.669128,271.795471 714.239258,251.907639 713.064209,231.485687 
	C713.667297,230.712662 713.973145,230.477020 714.278992,230.241364 
z"/>
<path fill="#F9FAF9" opacity="1.000000" stroke="none" 
	d="
M1089.083740,418.917236 
	C1088.983032,418.636597 1089.144775,418.231415 1089.666992,417.850342 
	C1089.800537,418.180542 1089.573364,418.486603 1089.083740,418.917236 
z"/>
<path fill="#000103" opacity="1.000000" stroke="none" 
	d="
M701.104492,390.013611 
	C701.864197,420.633942 699.825378,450.496063 691.524780,479.603760 
	C681.404541,515.092224 661.782898,545.298950 637.899841,572.860779 
	C605.827515,609.873169 567.017883,637.277161 520.226685,652.541809 
	C509.836334,655.931458 498.911377,659.161987 488.138916,659.502502 
	C476.362701,659.874756 464.268311,657.727356 452.676300,655.083435 
	C400.265472,643.129395 356.257446,615.628784 317.155884,579.717041 
	C289.320038,554.151855 265.857330,525.065796 249.853500,490.534729 
	C237.923767,464.794220 230.804321,437.504150 227.268784,409.511444 
	C223.368546,378.631042 220.788651,347.573273 218.112259,316.551453 
	C214.303558,272.405487 210.921310,228.222641 207.378784,184.053787 
	C206.353317,171.268036 205.334595,158.481033 204.441620,145.685608 
	C203.820724,136.788574 208.144196,132.308243 217.618179,132.054794 
	C235.274200,131.582458 252.933838,131.246109 270.591675,130.840866 
	C345.551453,129.120621 420.511139,127.396530 495.470856,125.672531 
	C537.447205,124.707123 579.423645,123.744278 621.399780,122.769501 
	C636.058228,122.429108 650.716187,122.067841 665.373779,121.694649 
	C675.897766,121.426712 680.298218,125.341438 681.160828,135.936203 
	C684.837769,181.097336 688.572327,226.253998 692.127747,271.424744 
	C695.225403,310.779907 698.110901,350.151764 701.104492,390.013611 
M392.665771,213.827454 
	C390.216461,212.097488 387.420044,210.689880 385.423309,208.539658 
	C383.701416,206.685364 381.557068,203.622955 382.062500,201.764481 
	C382.539337,200.011047 386.155640,198.219955 388.517395,198.031708 
	C396.810547,197.370636 405.168243,197.568893 413.481506,197.092667 
	C418.760040,196.790283 423.117828,198.300735 427.415131,201.345886 
	C467.641968,229.851608 507.958557,258.230774 548.255432,286.637695 
	C583.242920,311.301788 618.209961,335.995331 653.294739,360.520264 
	C655.636841,362.157410 658.899780,362.477264 661.734375,363.409821 
	C662.528503,360.381042 663.983948,357.351227 663.979126,354.323730 
	C663.969055,348.009705 663.232361,341.693268 662.715210,335.384247 
	C658.129089,279.438538 653.509766,223.495590 648.944580,167.548187 
	C648.261047,159.171219 646.992798,157.850754 638.532593,158.048309 
	C599.390869,158.962265 560.250000,159.909622 521.108826,160.845062 
	C481.800385,161.784515 442.492523,162.747543 403.183411,163.657623 
	C352.213440,164.837677 301.242523,165.976349 250.271942,167.130798 
	C242.396896,167.309143 241.221436,168.461151 241.826309,176.338455 
	C244.262131,208.059799 246.956619,239.762482 249.181030,271.498291 
	C250.122360,284.928314 254.758286,295.593750 266.234589,303.619568 
	C359.190918,368.627350 451.980103,433.874084 544.817932,499.051361 
	C556.133606,506.995636 567.484436,514.891418 578.722290,522.944580 
	C583.978149,526.711060 584.204102,529.169861 579.898132,533.942200 
	C577.113220,537.028748 574.107666,539.934143 571.037781,542.742310 
	C562.662354,550.403625 562.597473,550.409546 553.171204,543.781067 
	C482.592804,494.150421 412.025909,444.503540 341.458923,394.856689 
	C316.663849,377.412384 291.921783,359.891937 267.022034,342.598450 
	C264.537170,340.872620 260.708557,339.076111 258.229065,339.799408 
	C254.101669,341.003448 255.342484,345.451233 255.650192,348.922760 
	C256.782410,361.696777 257.658325,374.497162 259.009979,387.247406 
	C261.933838,414.827667 267.101105,441.951508 277.354980,467.847931 
	C290.234863,500.376465 311.066925,527.458496 336.165375,551.355835 
	C367.727814,581.407837 403.426727,604.793091 445.938385,616.325500 
	C460.809448,620.359619 475.700928,624.526001 491.628479,621.500122 
	C520.856445,615.947510 547.280396,603.992493 570.838013,586.306824 
	C621.076050,548.591003 655.489075,500.701904 664.645508,436.905334 
	C667.459656,417.298004 662.906250,401.615997 645.151367,391.155304 
	C644.578918,390.818024 644.052124,390.402649 643.506958,390.019653 
	C560.092896,331.419983 476.679108,272.819946 392.665771,213.827454 
z"/>
<path fill="#636363" opacity="1.000000" stroke="none" 
	d="
M681.381104,558.047424 
	C690.413147,557.968018 699.194824,558.071655 708.424683,558.278687 
	C707.055969,561.894775 705.400085,565.506836 703.327698,568.861511 
	C702.676575,569.915344 700.923950,570.823059 699.645386,570.864563 
	C693.366882,571.067871 687.078186,570.956787 680.559509,570.956787 
	C680.123108,567.807983 679.746582,565.090881 679.016418,562.118652 
	C679.485413,560.652466 680.308044,559.441528 681.381104,558.047424 
z"/>
<path fill="#283162" opacity="1.000000" stroke="none" 
	d="
M481.945984,684.682983 
	C480.468048,684.868958 478.650909,684.856201 476.522888,684.663818 
	C478.010284,684.484314 479.808533,684.484314 481.945984,684.682983 
z"/>
<path fill="#E8E9E8" opacity="1.000000" stroke="none" 
	d="
M713.883545,230.182190 
	C713.973145,230.477020 713.667297,230.712662 713.078003,231.027985 
	C712.752319,230.945038 712.710083,230.782440 712.678162,230.367981 
	C712.955139,230.118408 713.221680,230.120697 713.883545,230.182190 
z"/>
<path fill="#000000" opacity="1.000000" stroke="none" 
	d="
M715.481201,228.054855 
	C714.928650,227.878372 714.829773,227.680664 714.882690,227.187653 
	C716.198486,226.928223 717.362549,226.995560 718.526672,226.995575 
	C981.038635,226.997192 1243.550659,226.994064 1506.514160,226.929733 
	C1506.965576,226.868362 1506.932617,227.365311 1506.952637,227.613525 
	C1505.315430,227.939316 1503.658081,228.084717 1502.000854,228.084793 
	C1314.604004,228.092575 1127.207275,228.094193 939.810486,228.084763 
	C865.185303,228.081009 790.560120,228.051437 715.481201,228.054855 
z"/>
<path fill="#4B6EFE" opacity="1.000000" stroke="none" 
	d="
M392.965546,214.023682 
	C476.679108,272.819946 560.092896,331.419983 643.506958,390.019653 
	C644.052124,390.402649 644.578918,390.818024 645.151367,391.155304 
	C662.906250,401.615997 667.459656,417.298004 664.645508,436.905334 
	C655.489075,500.701904 621.076050,548.591003 570.838013,586.306824 
	C547.280396,603.992493 520.856445,615.947510 491.628479,621.500122 
	C475.700928,624.526001 460.809448,620.359619 445.938385,616.325500 
	C403.426727,604.793091 367.727814,581.407837 336.165375,551.355835 
	C311.066925,527.458496 290.234863,500.376465 277.354980,467.847931 
	C267.101105,441.951508 261.933838,414.827667 259.009979,387.247406 
	C257.658325,374.497162 256.782410,361.696777 255.650192,348.922760 
	C255.342484,345.451233 254.101669,341.003448 258.229065,339.799408 
	C260.708557,339.076111 264.537170,340.872620 267.022034,342.598450 
	C291.921783,359.891937 316.663849,377.412384 341.458923,394.856689 
	C412.025909,444.503540 482.592804,494.150421 553.171204,543.781067 
	C562.597473,550.409546 562.662354,550.403625 571.037781,542.742310 
	C574.107666,539.934143 577.113220,537.028748 579.898132,533.942200 
	C584.204102,529.169861 583.978149,526.711060 578.722290,522.944580 
	C567.484436,514.891418 556.133606,506.995636 544.817932,499.051361 
	C451.980103,433.874084 359.190918,368.627350 266.234589,303.619568 
	C254.758286,295.593750 250.122360,284.928314 249.181030,271.498291 
	C246.956619,239.762482 244.262131,208.059799 241.826309,176.338455 
	C241.221436,168.461151 242.396896,167.309143 250.271942,167.130798 
	C301.242523,165.976349 352.213440,164.837677 403.183411,163.657623 
	C442.492523,162.747543 481.800385,161.784515 521.108826,160.845062 
	C560.250000,159.909622 599.390869,158.962265 638.532593,158.048309 
	C646.992798,157.850754 648.261047,159.171219 648.944580,167.548187 
	C653.509766,223.495590 658.129089,279.438538 662.715210,335.384247 
	C663.232361,341.693268 663.969055,348.009705 663.979126,354.323730 
	C663.983948,357.351227 662.528503,360.381042 661.734375,363.409821 
	C658.899780,362.477264 655.636841,362.157410 653.294739,360.520264 
	C618.209961,335.995331 583.242920,311.301788 548.255432,286.637695 
	C507.958557,258.230774 467.641968,229.851608 427.415131,201.345886 
	C423.117828,198.300735 418.760040,196.790283 413.481506,197.092667 
	C405.168243,197.568893 396.810547,197.370636 388.517395,198.031708 
	C386.155640,198.219955 382.539337,200.011047 382.062500,201.764481 
	C381.557068,203.622955 383.701416,206.685364 385.423309,208.539658 
	C387.420044,210.689880 390.216461,212.097488 392.965546,214.023682 
z"/>
</svg>